<svg width="203" height="55" viewBox="0 0 203 55" fill="none" xmlns="http://www.w3.org/2000/svg">
<path d="M21.2913 15.3779L20.8419 15.6346C17.3112 22.5676 12.5769 29.2117 9.07833 36.1286C8.85364 36.578 8.46848 37.2039 8.37218 37.6694C7.52162 41.8099 12.3041 44.522 15.4496 41.6975L33.4882 10.788C36.6016 7.54618 41.9297 10.4991 40.5174 14.9285C34.6918 24.6219 29.5402 35.1015 23.5059 44.6184C14.8879 58.2436 -4.19383 48.6946 0.829365 33.9781C5.4032 26.2267 9.55978 17.8654 14.3583 10.2744C16.7334 6.51906 20.6654 4.65743 24.8701 7.04866C26.4749 7.96343 28.4649 10.7077 29.1391 12.4089C29.2353 12.6496 29.3798 12.8582 29.2996 13.1631L24.6776 21.0751L21.3073 15.3779H21.2913Z" fill="white"/>
<path d="M21.2913 15.3779L20.8419 15.6346C17.3112 22.5676 12.5769 29.2117 9.07833 36.1286C8.85364 36.578 8.46848 37.2039 8.37218 37.6694C7.52162 41.8099 12.3041 44.522 15.4496 41.6975L33.4882 10.788C36.6016 7.54618 41.9297 10.4991 40.5174 14.9285C34.6918 24.6219 29.5402 35.1015 23.5059 44.6184C14.8879 58.2436 -4.19383 48.6946 0.829365 33.9781C5.4032 26.2267 9.55978 17.8654 14.3583 10.2744C16.7334 6.51906 20.6654 4.65743 24.8701 7.04866C26.4749 7.96343 28.4649 10.7077 29.1391 12.4089C29.2353 12.6496 29.3798 12.8582 29.2996 13.1631L24.6776 21.0751L21.3073 15.3779H21.2913Z" fill="white"/>
<path d="M37.1804 26.2906L48.0613 45.3404C49.9229 49.7376 44.1615 53.3646 41.032 49.6414L32.2214 34.5236L36.5545 26.724L37.1643 26.2906H37.1804Z" fill="white"/>
<path d="M37.1804 26.2906L48.0613 45.3404C49.9229 49.7376 44.1615 53.3646 41.032 49.6414L32.2214 34.5236L36.5545 26.724L37.1643 26.2906H37.1804Z" fill="white"/>
<path d="M41.9628 0.00305378C46.344 -0.157432 47.8526 6.05336 43.8405 7.83475C37.5494 10.6432 35.3829 0.259831 41.9628 0.00305378Z" fill="white"/>
<path d="M41.9628 0.00305378C46.344 -0.157432 47.8526 6.05336 43.8405 7.83475C37.5494 10.6432 35.3829 0.259831 41.9628 0.00305378Z" fill="white"/>
<path d="M55.99 45L67.51 13.5H74.395L85.87 45H79.435L70.93 20.43L62.38 45H55.99ZM61.075 37.845L62.695 33.12H78.715L80.29 37.845H61.075ZM90.0093 45V13.5H96.0843V45H90.0093ZM102.27 45V13.5H114.06C116.61 13.5 118.725 13.935 120.405 14.805C122.085 15.675 123.33 16.845 124.14 18.315C124.95 19.785 125.355 21.465 125.355 23.355C125.355 25.095 124.965 26.7 124.185 28.17C123.405 29.64 122.175 30.84 120.495 31.77C118.815 32.67 116.67 33.12 114.06 33.12H108.345V45H102.27ZM108.345 28.215H113.7C115.65 28.215 117.045 27.78 117.885 26.91C118.755 26.01 119.19 24.825 119.19 23.355C119.19 21.795 118.755 20.595 117.885 19.755C117.045 18.885 115.65 18.45 113.7 18.45H108.345V28.215ZM129.777 45V22.32H135.177L135.762 26.505C136.302 25.515 136.977 24.675 137.787 23.985C138.627 23.295 139.572 22.755 140.622 22.365C141.702 21.975 142.887 21.78 144.177 21.78V28.215H142.107C141.207 28.215 140.367 28.32 139.587 28.53C138.837 28.74 138.177 29.085 137.607 29.565C137.037 30.015 136.602 30.645 136.302 31.455C136.002 32.265 135.852 33.285 135.852 34.515V45H129.777ZM158.728 45.54C156.448 45.54 154.423 45.06 152.653 44.1C150.913 43.11 149.548 41.745 148.558 40.005C147.598 38.235 147.118 36.195 147.118 33.885C147.118 31.515 147.598 29.43 148.558 27.63C149.548 25.8 150.913 24.375 152.653 23.355C154.393 22.305 156.418 21.78 158.728 21.78C160.978 21.78 162.943 22.275 164.623 23.265C166.303 24.255 167.608 25.59 168.538 27.27C169.468 28.95 169.933 30.855 169.933 32.985C169.933 33.285 169.933 33.63 169.933 34.02C169.933 34.38 169.903 34.755 169.843 35.145H151.438V31.455H163.813C163.723 29.985 163.198 28.83 162.238 27.99C161.308 27.15 160.138 26.73 158.728 26.73C157.708 26.73 156.763 26.97 155.893 27.45C155.023 27.9 154.333 28.605 153.823 29.565C153.343 30.525 153.103 31.74 153.103 33.21V34.515C153.103 35.745 153.328 36.825 153.778 37.755C154.258 38.655 154.918 39.36 155.758 39.87C156.598 40.35 157.573 40.59 158.683 40.59C159.793 40.59 160.708 40.35 161.428 39.87C162.178 39.39 162.733 38.775 163.093 38.025H169.303C168.883 39.435 168.178 40.71 167.188 41.85C166.198 42.99 164.983 43.89 163.543 44.55C162.103 45.21 160.498 45.54 158.728 45.54ZM174.908 54.9V22.32H180.308L180.983 25.47C181.463 24.81 182.033 24.21 182.693 23.67C183.353 23.1 184.133 22.65 185.033 22.32C185.963 21.96 187.043 21.78 188.273 21.78C190.403 21.78 192.278 22.305 193.898 23.355C195.518 24.405 196.793 25.83 197.723 27.63C198.683 29.4 199.163 31.425 199.163 33.705C199.163 35.985 198.683 38.025 197.723 39.825C196.763 41.595 195.473 42.99 193.853 44.01C192.233 45.03 190.388 45.54 188.318 45.54C186.638 45.54 185.183 45.24 183.953 44.64C182.753 44.01 181.763 43.155 180.983 42.075V54.9H174.908ZM186.878 40.23C188.078 40.23 189.128 39.96 190.028 39.42C190.958 38.88 191.678 38.115 192.188 37.125C192.698 36.135 192.953 34.995 192.953 33.705C192.953 32.415 192.698 31.275 192.188 30.285C191.678 29.265 190.958 28.485 190.028 27.945C189.128 27.375 188.078 27.09 186.878 27.09C185.708 27.09 184.658 27.375 183.728 27.945C182.828 28.485 182.108 29.25 181.568 30.24C181.058 31.23 180.803 32.37 180.803 33.66C180.803 34.95 181.058 36.105 181.568 37.125C182.108 38.115 182.828 38.88 183.728 39.42C184.658 39.96 185.708 40.23 186.878 40.23Z" fill="white"/>
</svg>
